<svg width="131" height="107" viewBox="0 0 131 107" fill="none" xmlns="http://www.w3.org/2000/svg">
<path d="M51.9642 59.1122C52.4388 50.6457 56.5848 43.1865 62.8396 37.8988C68.9735 32.7051 77.2296 29.5308 86.2379 29.5308C95.2373 29.5308 103.493 32.7051 109.632 37.8988C115.882 43.1865 120.028 50.6456 120.507 59.1032C120.982 67.8026 117.485 75.8841 111.351 81.8747C105.096 87.9683 96.1999 91.7921 86.2379 91.7921C76.2759 91.7921 67.3616 87.9683 61.1113 81.8747C54.973 75.8841 51.4851 67.8027 51.9642 59.1122Z" fill="white"/>
<path d="M68.6544 59.8725C68.898 55.5283 71.0253 51.7009 74.2346 48.9878C77.382 46.3229 81.6183 44.6941 86.2405 44.6941C90.8581 44.6941 95.0944 46.3229 98.244 48.9878C101.451 51.7009 103.578 55.5282 103.824 59.8679C104.068 64.3316 102.274 68.4783 99.1262 71.5521C95.9168 74.6788 91.352 76.6407 86.2405 76.6407C81.1289 76.6407 76.5549 74.6788 73.3479 71.5521C70.1982 68.4783 68.4086 64.3316 68.6544 59.8725Z" fill="#265787"/>
<path d="M40.6457 68.6519C40.6756 70.352 41.2178 73.6556 42.031 76.2355C43.7402 81.6962 46.6394 86.748 50.6735 91.2002C54.8133 95.7765 59.9111 99.4522 65.7992 102.062C71.9882 104.803 78.6941 106.199 85.6596 106.188C92.6136 106.179 99.3195 104.754 105.509 101.993C111.397 99.358 116.49 95.6662 120.623 91.0877C124.654 86.6171 127.549 81.5561 129.263 76.0953C130.124 73.3362 130.669 70.5358 130.887 67.7261C131.101 64.9579 131.011 62.185 130.618 59.4144C129.851 54.0157 127.983 48.9501 125.107 44.3324C122.477 40.0893 119.086 36.3745 115.054 33.2479L115.063 33.2409L74.3751 1.99958C74.3383 1.97202 74.3085 1.9422 74.2694 1.91693C71.5999 -0.132289 67.111 -0.125386 64.175 1.92842C61.2068 4.00521 60.8668 7.43967 63.5087 9.60605L63.4972 9.61754L80.4676 23.4176L28.7433 23.4727H28.6743C24.399 23.4773 20.2891 26.2823 19.4759 29.8271C18.6396 33.4385 21.5434 36.4342 25.9888 36.4503L25.9819 36.4664L52.199 36.4159L5.41617 72.3254C5.35644 72.369 5.29211 72.415 5.23698 72.4586C0.823808 75.838 -0.6028 81.4573 2.17697 85.0135C4.99809 88.6295 10.9964 88.6364 15.4555 85.0342L40.988 64.1377C40.988 64.1377 40.6159 66.9588 40.6457 68.6519ZM106.255 78.0985C100.994 83.4582 93.629 86.4976 85.6596 86.5137C77.6787 86.5275 70.3134 83.5157 65.0525 78.1652C62.4818 75.5577 60.5934 72.5574 59.4287 69.3619C58.2869 66.2214 57.8435 62.888 58.1376 59.5247C58.4156 56.2372 59.3942 53.1013 60.9564 50.2641C62.491 47.4752 64.6046 44.955 67.2143 42.8231C72.3282 38.6558 78.8388 36.3998 85.6481 36.3906C92.4643 36.3814 98.9703 38.6167 104.089 42.7703C106.694 44.893 108.805 47.404 110.34 50.1883C111.909 53.0232 112.881 56.1476 113.17 59.4443C113.46 62.8029 113.016 66.1318 111.874 69.2746C110.707 72.4793 108.826 75.4796 106.255 78.0985Z" fill="#EA7600"/>
</svg>
