<svg width="126" height="144" viewBox="0 0 126 144" fill="none" xmlns="http://www.w3.org/2000/svg">
<g clip-path="url(#clip0_1797_709)">
<path d="M68.907 25.8038L91.282 38.8697C92.0864 39.3283 92.1157 40.6011 91.282 41.0597L64.6952 56.5967C63.8908 57.0704 62.9404 57.0408 62.1943 56.5967L35.6075 41.0597C34.7886 40.6159 34.7741 39.3135 35.6075 38.8697L57.968 25.8038V0.219482L0.875 33.5723V100.278L22.7675 87.4933V61.3615C22.7529 60.4292 23.835 59.7633 24.6394 60.2664L51.2264 75.8034C52.0307 76.2771 52.484 77.1205 52.484 77.9936V109.053C52.4986 109.985 51.4163 110.651 50.6119 110.148L28.237 97.0819L6.34447 109.867L63.4375 143.219L120.531 109.867L98.6381 97.0819L76.2631 110.148C75.4732 110.636 74.3619 110 74.391 109.053V77.9936C74.391 77.0613 74.9029 76.2326 75.6486 75.8034L102.236 60.2664C103.025 59.7781 104.137 60.3996 104.108 61.3615V87.4933L126 100.278V33.5723L68.907 0.219482V25.8038Z" fill="black"/>
</g>
<defs>
<clipPath id="clip0_1797_709">
<rect width="125.125" height="143" fill="white" transform="translate(0.875 0.219482)"/>
</clipPath>
</defs>
</svg>
