<?xml version="1.0" encoding="UTF-8"?>
<svg id="Layer_1" data-name="Layer 1" xmlns="http://www.w3.org/2000/svg" viewBox="0 0 428.83 824.59">
  <defs>
    <style>
      .cls-1 {
        fill: #fff;
        stroke-width: 0px;
      }
    </style>
  </defs>
  <path class="cls-1" d="m.06.02h10.99c6.55,5.34,14.39,8.41,21.79,12.25,10.62,5.5,20.87,11.64,31.07,17.87,5.28,3.22,10.93,4.61,17.03,4.75,2.71.06,5.58-.51,8.06,1.38.45.35,1.62,1.2,2.07,0,1.94-5.21,4-1.79,5.99-.13,3.66,3.05,8.1,2.76,12.34,2.61,3.52-.13,6.95-.05,10.31.96,4.17,1.26,7.96.85,11.96-1.21,7.8-4.01,8.39-4.71,8.03-13.32-.11-2.49-1.73-3.33-3.49-4.35-10.19-5.93-20.18-12.19-29.82-18.98-.65-.46-1.47-.82-1.4-1.84h7c.51,3.7,3.78,4.95,6.29,6.64,6.21,4.17,12.67,7.96,18.96,12,3.09,1.99,6.73,2.5,10.01,2.44,11.05-.22,21.97,1.54,32.97,1.66,2.22.02,4.47-.55,5.02-3.19.84-4.06,7.87-7.97.41-12.34-.14-.08-.03-.98.23-1.26.8-.86,1.85-.55,2.8-.28,4.31,1.25,8.57,2.66,12.91,3.77,13.15,3.36,26.46,5.73,40.03,6.59,16.87,1.07,33.69,2.59,50.63,1.11,16.32-1.43,32.63-2.68,48.64-6.4,5.16-1.2,10.45-1.81,15.67-2.79,1.42-.27,3.91,0,2.55-2.77-.58-1.18.1-1.87.37-2.77.24.14.53.23.73.42,1.2,1.11-.07,1.96-.35,2.91-.08.29-.18.59-.45,1.41,6.65-.37,12.89-1.88,19.07-3.44,4.48-1.13,9.44-.66,13.38-3.72h22.99c-2.02,3.16-5.39,2.59-8.31,2.78-10.42.68-10.12.47-5.97,9.83,3.46,7.83,9.52,13.67,14.2,20.55,2.26,3.31,4.12,1.87,6.05-.24.32,4.28-1.13,8.77,1.9,13.21.67-4.41,1.17-8.45,1.91-12.44.68-3.68-1.45-1.91-2.87-1.62,1.02-5.08,3.16-9.54,7.07-13.06v6c-2.47,3.1-1.91,6.82-2.08,10.38-.07,1.35,1.14,1.38,2.08,1.61v3c-2.41-.32-2.69,1.6-2.94,3.12-1.89,11.65-2.15,23.24,1.63,34.63.23.68.56,1.15,1.31,1.24v11c-2.1.31-1.59-1.42-1.81-2.44-3.05-14.09-6.51-28.08-8.58-42.39-1.15-7.93-7.61-13.31-11.89-19.69-1.79-2.66-4.09-4.98-6.54-7.92-.98,3.92.21,6.96.13,10.03-.48,17.79,8.02,32.67,15.61,47.83,2.45,4.9,5.06,9.72,7.83,14.44,1.35,2.31,2.46,5,5.25,6.15v6c-1.69.21-3.24-.33-4.83-.82-8.26-2.56-8.23-2.42-10.85,6.02-2.2,7.11-4.77,14.12-7.35,21.1-.93,2.52-.78,4.16,1.7,5.77,2.9,1.89,5.45,4.31,8.15,6.51,1.03.84,2.12,1.9,3.52,1.18,1.39-.71.33-2.08.37-3.12.4-10.05,3.39-19.52,6.49-28.95.46-1.41.59-3.44,2.8-3.68v6c-2.13,1.1-1.97,3.33-2.42,5.17-3.36,13.89-6.02,27.85-6.02,42.28-.01,8.88-.71,17.7,3.33,26.03,1.08,2.22,2.1,4.23,5.1,3.5v4c-5.59,1.99-8.65,6.93-12.11,11.09-9.43,11.35-18.32,23.08-25.6,36.05-11.78,20.98-19.98,42.94-21.11,67.18-.42,8.88.26,17.42,6.94,24.52,2.54,2.69,3.77,6.59,5.68,9.89,11.34,19.67,21.74,39.78,30.22,60.92,3.68,9.18,7.99,18.17,11.82,27.33.75,1.8,1.5,3.98,4.14,1.96v21.99c-2.75-5.73-3.46-12.09-5.6-17.99-4.25-11.72-9.93-22.82-15.04-34.17-4.55-10.1-8.36-20.56-13.33-30.44-9.85-19.56-20.59-38.62-33.36-56.48-4.67-6.53-8.24-13.87-14.41-19.64-1,1.54-1.3,2.99-1.11,4.41,1.37,10.19,3.95,20.28,2.11,30.69-.37,2.09-.95,4.25-.73,6.31,1.26,11.93-.26,23.84-.25,35.75,0,12.6-2.3,25.23-1.83,37.79.77,20.76-.83,41.44-.79,62.16.04,16.07-.85,32.18-.72,48.28.1,12.43.48,24.87.46,37.3-.03,18.57-.53,37.15-.38,55.72.1,13.16.35,26.31-.4,39.46-.51,8.92-1.16,17.87.28,26.77.53,3.28-1.98,4.89-3.75,8.46.13-15.03-.13-28.59.72-42.15,1.01-16.12-1.16-32.26.11-48.38.28-3.53-.64-6.89-.59-10.41.24-18.22.72-36.48-.08-54.67-1.04-23.54.42-46.98,1.06-70.45.25-9.24.85-18.48.96-27.72.13-10.59-.64-21.21-.05-31.76.68-12.05,1.76-24.08,1.88-36.16.18-17.43,2.9-34.79,1.48-52.24-1.13-13.83-1.56-28.01-13.57-38.07-2.4-2.01-4.37-4.54-6.5-6.86-12.69-13.79-25.15-27.81-38.13-41.33-13.66-14.23-27.3-28.45-42.09-41.63-17.47-15.58-33.9-32.34-51.74-47.56-25.76-21.97-52.24-43.07-78-65.05-19.16-16.36-38.21-32.99-60.53-45.4C38.93,19.6,23.1,10.64,6.16,3.82,3.85,2.89,1.8,1.7,0,.02h.06Zm327,96.64c.5-.69-.38-.84-.79-1.14-.99-1.76-2.59-2.4-4.5-2.39-.54,0-.86.37-.74.97.49,2.5,2.97,1.52,4.34,2.48.59.04,1.51.33,1.69.08Zm56.69,36.32c.82.24.89.73.51,1.42-.62,1.13-1.62,2.55.31,3.13,1.41.42,1.72-1.29,2.05-2.25.44-1.29,1.75-2.39,1.23-3.94-2.05-.79-2,3.09-4.2,1.72.85-3.01,3.65-4.63,5.17-7.17.62-1.04,1.39-2,.38-3.12-1.52-1.69-2.38.16-3.22.86-2.48,2.08-3.61,5.11-5,7.91-.3.62-.25,1.96.17,2.29.98.77,1.61-.83,2.59-.85h.01Zm-54.01-26.14c1.26.67,2,2.2,3.76,2.12,1.75-.08,3.33-.56,3.91-2.25.64-1.86-.51-3.24-2.11-3.99-1.59-.75-3.77-.26-4.1-3.09-.16-1.39-1.55-.57-2.15.23-1.07,1.42-2.04,2.92-2.89,4.15.76,2.05,3.76.33,3.71,2.95-4.72-.91-6.79,2.15-8.55,5.7-.44.89-2.17,1.66-.47,2.73,1.46.92,3.1,1.82,4.74,2.01.59.07,1.86-1.87,2.06-3.02.46-2.68,1.28-6.47,2.11-7.55h-.02Zm-48.42-81.93c-.23-.38-.47-.76-.71-1.14.93-1.74,1.88-3.69-1.44-3.36-3.07.3-7.58-1.86-8.8.69-1.18,2.47,3.65,3.88,5.43,6.14.61.77,1.45,1.35,2.17,2.03,1.26,1.2,2.93,3.77,4.17,2.21,1.08-1.35,2.16-4.72-.81-6.57h0Zm62.97,45.89c1.59-.96,3.42-1.91,3.63-3.96.22-2.28-2.52-.46-3.15-1.85.89-1.77.24-3.9,2.17-5.62,2.01-1.8-.7-2.8-2.4-4.19,2.67.02,4.44-.53,5.43-2.8,1.28-2.94,1.45-4.73-2.64-4.23-1.12.13-2.3-.3-3.45-.32-1.46-.03-3.42-1.95-4.25.44-.67,1.93-.91,4.37,1.73,5.47,1.61.67,2.51,1.11.3,2.29-3.09,1.65-1.29,4.86-1.59,7.14-.31,2.35,2.89,1.7,4.78,1.74,1.8,2.16-1.92,3.59-.56,5.89Zm47.87,73.41c.29.33.57.67.85,1.01-.93,1.82-.3,3.5,1.28,4.2,1.6.7,1.98-1.26,2.67-2.26,2.53-3.66,5.01-7.35,7.49-11.05.15-.23.08-.61.14-1.09-2.64-.96-2.72,2.32-4.46,2.72-.17-.25-.34-.5-.48-.76-1-1.95,3.34-4.47-.33-5.88-2.73-1.05-3,2.43-4.63,3.56-.56.38-1,1.5-1.9.43-.14-2.03,1.61-3.12,2.4-4.68.71-1.4.64-2.59-.6-3.5-1.73-1.27-2.23.39-2.92,1.42-1.65,2.48-2.78,5.15-3.08,8.24,1.97.49,2.57-2.12,4.32-1.61.51,2.79-2.71,2.69-3.52,4.56-.55,1.27-1.18,2.34-.45,3.71.76,1.43,1.77,1.9,3.22.95v.03Zm-29.39-18.07c-.31-1.67,1.54-1.97,2-3.17.45-1.17,1.06-2.27,1.83-3.88-2.83.25-4.48,1.51-6.12,2.83-1.36,1.09-2.64,2.29-1.71,4.16,1.32,2.67,2.72-.85,4.12-.08,1.02,2.36-3.09,2.64-2.06,4.92,1.98,4.36,4.08,8.68,6.11,13.02.5,1.07,1.2.89,1.96.38.42-.27.75-.66,1.17-.93,10.58-6.83,10.4-7.77,1.52-16.71-3.44-3.46-6,.49-8.83-.55h.01Zm8.93-23.1c1.36.17.73,1.09.73,1.82.01,1.5.82,2.77,2.2,2.93,1.79.22,1.87-1.56,2.09-2.78.29-1.6,1.41-3.07.83-4.82-2.11.74-2.94,4.03-5.93,2.9,1.73-2.97,3.65-5.87,5.16-8.97.69-1.42,4.12-3.08,1.05-4.6-2.15-1.07-5.49-1.88-7.42,1.6-1.39,2.5-2.18,5.4-4.93,8.15.38-4.12,2.33-6.65,3.7-9.4.49-.98.92-1.88-.22-2.57-.98-.59-2.08-.4-2.58.63-1.66,3.43-5.13,6.47-2.69,10.88.74,1.33.48,1.71-.89,2.53-5.18,3.09-5.1,3.96.07,7.63,2.49,1.76,3.95,1.42,5.38-.55,1.83-2.52-2.77-2.85-1.28-5.28,1.41-.57,3.22,1.62,4.73-.11h0Zm11.82-51.68c-.65-.6-1.49-.72-2.25-.27-11.87,7.07-23.28,14.83-35.46,23.59,6.16.55,11.26-.71,16.26.84,1.48.46,2.67-2,3.78-3.36,5.74-7.04,11.26-14.28,17.62-20.8-.1-.27-.2-.53-.3-.79-.11.12-.21.25-.32.38.22.14.44.27.66.4h0Zm-69.68,54.8c-4.77-2.85-4.8-2.86-6.97,3.02-.32.86-.89.91-1.49.85-4.16-.43-5.79,3.38-8.57,5.2-3.45,2.26,1.37,3.13,1.15,4.95-5.29-1.39-8.73-.02-10.09,5.84-.49,2.13-3.33.64-5.43,1.62,9.61-8.46-2.72-9.65-4.51-15.87,3.49,3.88,8.95,1.3,10.73,6.5.29.86,1.29.69,2.14.23,4.73-2.54,5.48-5.96,2.13-10.24-1.64-2.09-3.47-4.03-5.1-6.13-2.28-2.94-4.91-1.71-7.02-.26-2.7,1.85.64,2.94,1.17,4.35.6,1.59,1.84,2.95,2.99,4.71-2.86.15-3.28-1.89-4.45-3.36-1.56-1.95-2.5-5.61-6.44-3.69-1.44.71-1.42,1.73-1.91,3.13-1.95,5.58,2.63,9.37,2.64,14.23-2.5-2.9-3.8-6.3-4.98-9.77-1.12-3.31-2.81-5.36-6.46-2.72-.27.2-.59.32-.89.45-8.1,3.53-8.2,3.61-2.52,10.73,4.24,5.32,7.94,10.98,11.37,16.86,7.94-2.84,2.49-9.04,2.79-14.35,2.65,1.37,2.28,3.42,2.88,4.92.63,1.57.67,4.12,3.31,1.62.51-.48,1.58-.43,1.37.35-.69,2.56,2.53,3.48,2.2,5.79-4.32-2.65-7.54-1.72-10.18,2.58-1.04,1.7.29,1.97,1.03,2.66,4.57,4.29,9.12,8.62,13.8,12.79,1.14,1.02,2.92,3.83,4.14,1.48,1.2-2.3,5.82-4.92,1.37-8.36-4.09-3.15-7.56-6.86-10.26-11.26,3.4.4,4.47,3.78,6.9,5.39,2.74,1.82,3.81,6.21,8.26,5.45.19-.04.64.34.66.55.86,8.63,9.52,5.88,13.84,9.44.3.24,1.26.24,1.42,0,2.95-4.24,2.73-.23,3.59,1.29.26.45,1.04.59,1.84,1.01-2.3,1.02-7.64,11.43-7.34,13.47.17,1.11.89,1.25,1.72,1.35.99.12,1.99.16,2.98.31,3.68.57,6.7,2.78,9.06,6.65-3.8-1.5-7.62-2.97-11.41-4.5-1.73-.7-3.05-.95-3.87,1.37-.84,2.37.4,2.98,2.22,3.36,5.24,1.09,10.24,3.39,15.87,2.82.23-2.08-2.55-1.59-2.93-3.17.12-.12.23-.27.38-.32,2.63-.89,5.32,4.08,7.46.5,1.26-2.11-.48-5.29.33-8.1.7-2.44-1.3-2.9-3.33-3.13-4.03-.46-8.13-.67-12.32-2.22,4.66-1.52,8.91.09,13.19.2,2.02.06,3.63-.05,3.65-2.76.02-2.18-.49-3.37-2.97-3.48-3.47-.15-6.93-.64-10.59-1.01,3.5-.54,6.69-2.11,10.26-1.23.67.16,1.74-.14,2.24-.63,2.69-2.58-1.95-5.14-.75-6.59,3.34-4.02,2.11-6.15-4.48-6.93-2.2-.26-4.56.29-7.89-1.5,4.03-.99,6.77-1.07,9.55-.03,3.35,1.26,4.77-1.25,5.3-3.47.76-3.17-2.2-2.5-4-2.77-1.81-.28-3.63-.52-5.45-.68-2.66-.24-6.48-1.77-3.75,3.76.44.89-1.21,2.97-2.14,4.34-2.21,3.27-1.14,5.05,2.5,5.61-1.27,2.81-4.3.67-5.9,2.95,1.52-6.98-3.51-7.1-7.62-8.21-2.25-.6-4.94-.26-6.36-2.78-.09-.17-.08-.39-.11-.59-.02.12-.09.3-.04.34.12.1.3.19.45.18,3.92-.35,7.37,1.82,11.17,2.1,1.39.1,2.93,1.2,3.8-.93.76-1.83.54-2.58-1.54-3.7-1.51-.81.47-3.28,1.77-3.32,1.31-.04,1.87-.28,1.96-1.31.21-2.34-3.09-1.97-3.44-4.36-.13-.95-.89.5-1.17,1.1-.79,1.69-1.8,1.27-3.19.64-1.46-.66-3.33-2.14-4.54.5-.32.69-.69,1.16-1.19.17-2.28-4.5-6.37-7.29-9.92-10.59-.51-.47-.86-1-.04-1.52,3.92.61,5.61,4.24,8.46,6.3.94.67,1.16,2.9,2.79,1.83,1.08-.7,3.1-2.03,2.51-3.24-1.44-2.94,1.83-1.74,2.15-2.95.24,2.96,4.3,6.13,7.6,5.96,2.06-.11,2.02-1.86,2.55-3.18.75-1.9-.49-2.16-1.9-2.51-2.78-.69-5.55-.98-8.35-.19,3.56-5.08-2.05-6.47-4.45-9.46,2.74-1.2,3.63.86,4.98,1.63.91.52,1.76,1.9,2.87.37.75-1.02,1.73-2.03.51-3.48-1.36-1.61-2.55-3.38-3.81-5.08,1.85-1.53,2.32.75,3.41,1.26,1.43.67,2.78,3.24,4.3.45.96-1.77,3.16-3.96-.16-5.8-1.51-.83-2.15-2.82-4.38-2.82-1.98,0-3.69.42-4.75,2.02-1.26,1.9.92,2.42,1.75,3.45.45.56.69,1.06-.08,1.53l-.03.03Zm56.47-33.61c10.33-3.08,20.62-6.28,30.99-9.19,3.1-.87,4.07-1.82,2.65-5.09-1.98-4.56-3.43-9.35-4.98-14.08-.84-2.56-2.01-2.86-3.84-.95-8.83,9.22-18.11,18.04-25.61,28.46l-.35,1.03c.38-.07.76-.13,1.14-.19h0Zm-47.52,185.35c2.81-.82,3.47,1.63,4.61,3.16,1.34,1.79,2.13,4.07,5.31,5.08-.62-7.61,1.23-14.62,1.09-21.79-.03-1.42.13-2.56-1.71-3.53-10.99-5.8-21.87-11.83-32.73-17.88-1.92-1.07-2.99-1.05-3.63,1.27-.94,3.41-2.77,5.83,2.31,8.88,9.79,5.88,17.46,14.63,24.9,23.36.43.51.8,1.05-.02,1.56-4.9-3.59-8.66-8.36-12.96-12.57-.8-.78-1.49-2.35-2.67-1.23-1.2,1.14.43,1.91,1.13,2.68,5.54,6.13,11.04,12.29,16.7,18.3,1.1,1.17,1.97,3.25,4.49,2.64-2.32-3.39-4.57-6.66-6.81-9.94h0Zm-7.99-196.92c9.08,2.39,14.57-4.84,21.51-8.13,1.14-.54.8-2.07.75-3.22-.09-1.99-.21-3.98-.27-5.97-.08-2.64-1.06-5.84.08-7.79,1.42-2.44,4.22,1.14,6.69.34,1.85-.6,3.91-.68,5.88-.69,7.9-.05,9.32-1.23,10.98-8.94.4-1.85-.1-2.32-1.87-2.36-5.78-.12-11.6.27-17.32-1.07-1.47-.34-2.76.05-2.36,2.01.98,4.84-.75,6.78-5.8,8.08-4.96,1.28-9.35,4.84-13.97,7.42-3.49,1.95-7.12,3.7-11.04,4.45-5.2,1-7.76,3.11-4.85,8.53-.08-.15-.13-.37-.25-.43-2.16-1.1-3.33-4.97-5.67-4.03-2.85,1.14-4.96,4.07-7.44,6.16-1.07.91-.25,1.56,0,2.44.24.85,1.42,2.08-1.17,2.37-6.33.7-2.22,5.88-2.93,8.83-.78,3.22,4.1,1.59,5.35,3.78,1.93-1.94,3.27-4.58,3.05-6.98-.39-4.28,2.71-5.09,5.09-7.14,1.04,5.84-4.71,8.73-5.02,13.7,6.74,1.54,7.23,1.41,9.96-5.56.71-1.82,2.03-3.15,2.64-5.24,1.4-4.83.13-6.54-4.35-7.03-.03,0-.1-.31-.04-.38.21-.25.46-.46.7-.69,5.8-.34,8.36,4.3,11.76,7.61-3.17-1.18-5.12.17-5.07,3.28.05,3.3-3.38,5.2-2.72,9.1,2.23-.79,4.49-.94,4.11-4.34-.18-1.64,1.49-2.2,2.6-2.27,2.26-.15-.32,1.85.85,2.46.34.18.42.85.63,1.28.72,1.45-2.11,3.8.8,4.48,2.4.56,2.15-1.87,2.64-3.35.12-.36.7-.85,1.02-.81,5.55.63,2.45-2.44,1.87-4.5,5.44-.5,10.16-2.63,14.23-6.2,1.32-1.16,2.52-2.7,1.12-4.23-1.25-1.37-2.33.5-3.24,1.16-4.48,3.27-9.75,5.05-14.22,8.63-3.96,3.17-3.59-2.56-4.72-4.77h.01Zm-71.86,104.86c.67,2.94-2.15,4-3.39,5.81-1.69,2.47-2.11,4.2.33,6.39,7.4,6.67,14.7,13.45,21.99,20.25,1.82,1.71,3.1,1.53,4.26-.64,1.74-3.26,3.99-5.74.83-10.2-4.78-6.75-9.84-13.28-14.62-20.02-1.86-2.62-4.26-4.77-7.52-1.38-.31.32-1.39,1.17-1.97-.1,1.88-3.18-.44-5.42-2.01-7.55-4.11-5.6-7.72-11.58-12.49-16.69-.74-.8-1.85-1.51-1.03-3.93,4.09,5.07,7.9,9.67,11.57,14.38,1.83,2.35,3.52,4.83,5.06,7.38,1.42,2.34,3.44,1.92,5.16,1.09,2-.97.45-2.64,0-3.84-2.73-7.25-8-12.88-12.4-19.06-1.62-2.27-3.84-4.09-4.88-6.78,3.51-.14,4.03,3.36,5.53,5.18,4.29,5.22,8.82,10.37,11.75,16.61.97,2.07,2.52,3.86.75,6.33-.73,1.02,0,2.41.91,3.13,4.41,3.47,8.5,7.37,13.42,10.17.07.04.11.26.07.36-.05.15-.18.28-.28.41-2.5-.52-2.59.92-1.7,2.46,1.96,3.4,4.06,6.74,6.28,9.98.68.98,1.43,3.09,2.65,2.4,1.41-.79,2.27-2.69,3.13-4.25.87-1.57-.48-2.33-1.53-3.15-2.17-1.69-5.14-2.55-5.93-5.68,2.06-.06,3.21,1.63,4.74,2.55,2.42,1.46,4.12,4.23,7.24.16,1.58-2.07,3.81,1.59,5.93,2.7-6.74-2.92-8.05,2.66-10.54,6.43-1.75,2.65-.07,4.24,3.17,5.89-5.83-.15-10.55,3.94-11.29,8.37-.17.97.2,1.65.75,2.24,7.1,7.59,14.23,15.15,21.91,23.32.84-3.66-.97-5.55-2.18-7.45-4.54-7.13-9.27-14.15-13.12-21.7-.43-.85-1.51-1.68-.02-2.33,1.18-.52,2.06-.28,2.5,1.35,2.12,7.79,7.65,13.78,11.24,20.8.61,1.18,1.42,2.26,2.19,3.34,1.18,1.65.93,5.01,3.33,4.84,2.02-.15,1.67-3.31,2.34-5.1,3.35-9.09.79-16.19-7.67-21.3-3.17-1.9-6.42-3.65-9.12-6.46,3.45,1.56,6.91,3.13,10.36,4.7.45.87,1.14.84,1.91.5-.3-.45-.6-.91-.9-1.37-1-2.38-4.33-3-4.78-6.7,6.08,3.9,10.09,9.5,16.31,13.03.6-5.2,2.07-9.73,4.08-14-1.21-1.37-3.59-.34-4.11-2.5,1.62-1.21,4.35,1.33,5.33-1.17,1.35-3.46,2.35-7.09,3.04-10.74.18-.95-1.61-1.89-2.89-2.4-4.62-1.84-9.21-3.75-13.84-5.58-1.05-.41-2.33-.4-2.54-2.26,6.09.88,11.11,4.32,16.6,6.39,2.57.97,3.6,1.09,4.76-1.77,1.23-3.04-.52-3.41-2.45-4.09-4.26-1.5-8.53-3.01-12.79-4.51.17-.5.35-1,.52-1.5,4.35,1.53,8.71,3.05,13.05,4.61,1.61.58,3.42,2.23,3.96-1.12.34-2.15,1.92-4.24-2.02-5.18-3.81-.91-7.49-2.75-10.94-4.68-2.88-1.62-4.27-.81-6.08,1.58-1.73,2.3-1.78,5.8-5,7.11.68-5.82-16.15-20.98-21.75-18.65,1.67-2.25,1.99-4,.71-6.04-4.25-6.76-8.67-13.39-13.63-19.64-1.48-1.86-2.93-3.54-5.83-2.21-6.33,2.9-12.76,5.57-19.2,8.36,1.14,2.99,4.55,1.95,6.05,4.01-1.99,1.18-3.34-1.32-5.06-.75-1.87,2.1,2.32,3.1.82,5.11-1.27-1.26-2.71-2.4-3.78-3.81-1.88-2.5-3.86-2.47-6.48-1.13-2.1,1.07-2.33,1.73-.69,3.52,2.12,2.31,4.63,4.54,5.3,8.79-6.75-6.67-14.29-8.08-22.62-4.22-7.96,3.69-7.61,3.29-.91,9.11,9.65,8.37,19.31,16.77,28.09,26.08,4.25,4.52,4.62,4.6,8.64-.03,1.08-1.24,2.27-2.38,3.41-3.57h0Zm-15.03-137.75c-.85-2.54,1.77-3.46,2.46-5.27.6-1.6,2.73-3.31,1.04-4.83-1.4-1.25-4.47-1.58-5.56-.06-4.19,5.85-11.61,5.31-16.84,9.08-2.1,1.52-1.63,2.69-.95,4.8-5.62-2.01-8.77-.42-9.36,5.49-.41,4.16-2.44,7.89-3.89,11.75-.99,2.65-.23,4.04,2.5,4.58,4.39.87,8.77,1.76,13.13,2.73,1.49.33,2.49.02,3.35-1.31,1.05-1.62,1.59-4.33,4.7-2.34.94.61,1.78-.77,1.99-1.7,1.15-5.08,4.11-9.81,2.8-15.77-3.59,4.34-2.7,10.22-6.02,15.01-1.13-4.34,2.29-7.41,1.73-10.91-.8-4.95,2.98-5.78,6.04-7.36.61.4-1.02,2.31.95,1.62,1.15-.41,1.77-2.06,3.69-1.55-1.84,3.52-.62,5.56,3.19,6.33,7,1.41,13.34,4.74,20.05,7,1.16.39,2.68.57,2.9,2.31-1.41,2.02-5.5-1.91-5.4,1.91.09,3.55-3.49,6.92-.31,10.65,1.34,1.58,2.66,1.81,2.75-.03.2-4.05,4.34-6.36,4.06-10.46-.13-1.93,1.13-2.16,2.62-1.82,1.41.33,3.29-.88,4.17.53.95,1.53-1.06,2.09-1.86,3.02-2.97,3.45-3.64,8.05-5.96,11.86-1.03,1.7.94,2.23,2.16,2.44,3.21.55,6.33,1.61,10.44.95-1.86,2.86-3.69,2.74-5.63,2.3s-3.88-.89-5.82-1.3c-.64-.14-1.54-.49-1.92-.21-3.18,2.41-.83,5.77-1.29,8.67-.26,1.66-.52,4.46,2.02,4.11,3.17-.44,7.74,2.16,9.27-3.25.29-1.04,1.84-1.02,1.95-.57,1.17,4.81,4.55,2.62,7.37,2.57,10.97-.19,21.93-.28,32.9-.37,5.78-.04,11.57,0,17.13,0-17.13-3.94-35.09-4.32-52.67-8.45,3.58-4.05,5.48-8.46,6.62-13.17.31-1.31.8-2.1,1.87-2.63.4-.2.98-.41,1.21.29.37,1.13.36,2.1-.35,3.26-1.55,2.53-2.81,5.24-4.15,7.89-.48.94-1.8,2.06-.38,2.95,1.25.79,2.98.77,4.24-.15.74-.53,1.49-1.68,1.45-2.52-.31-6.64,3.44-11.25,7.49-15.8.86-.97,1.31-2.31,1.86-3.52.55-1.22,1.16-2.65-.42-3.49-1.67-.88-2.33.54-2.96,1.74-.59,1.14-.69,2.64-2.28,3.03-.22-.24-.45-.48-.69-.71.64-1.35,1.15-2.78,1.95-4.02.94-1.47,1.26-2.72-.34-3.86-1.84-1.31-2.76.18-3.61,1.35-1.96,2.69-3.45,5.81-5.79,8.08-2.59,2.51-1.9,6.21-4.24,8.91-.04-4.82-5.7-3.11-7.37-6.94,4.17.71,7.9,1.36,10.25-3.16,1.81-3.49,5.06-6.27,6.68-9.82,1.27-2.78-2.35-3.73-3.99-5.27-1.59-1.5-2.36-.14-3.41,1.17-2.66,3.33-3.9,7.91-8.99,10.76,1.65-5.12,5.47-7.43,7.04-11.26,1.23-2.98.51-4.31-1.64-6.64-8.56-9.28-19.94-6.29-30.29-7.64-3.14-.41-3.1,3.47-5.12,4.73-2.52-1.46.78-3.62-.94-5.49-2.77,3.15-3.77,7.66-7.61,9.81l.03-.03Zm174.02,163.91c-.33,1.28-.53,2.67,1.42,1.48,4.36-2.66,8.39-5.83,13.14-7.86,1.12-.48,2.01-1.78,1-3.31-.97-1.47-1.97-1.09-3.37-.49-3.52,1.51-5.32,5.56-9.36,6.21,1.48-3.32,4.25-5.37,7.23-7.13,1.81-1.08,2.86-2.06,1.39-4.21-1.64-2.41-3.32-1-4.54.08-2.95,2.6-5.58,5.56-8.46,8.23-1.05.98-1.64,3.42-3.95,1.8l.16.09c2.65-3.88,6.32-6.79,9.57-10.11,1.3-1.33,3.95-2.42,3.19-4.55-1.04-2.89-3.51,1.11-5.44-.75,1.94-2.01,2.23-4.48.95-7.27,6.21,3.52,8.21,10.58,13.18,14.9,1.38-.96.83-2.02.71-2.89-.57-4.23-1.27-8.3-.21-12.7,1.23-5.11-1.32-10.35-.5-15.69.28-1.85-1.68-3.94-3.47-4.5-2.41-.76-2.74,2-3.4,3.46-2.03,4.46-3.75,9.07-5.94,14.48-1.23-5.91,2.04-9.63,3.34-13.89.88-2.86,5.37-6.34.3-8.85-4.33-2.15-5.38,2.73-7.13,5.13-5.63,7.73-5.51,7.81.33,16.76-4.48-2.51-7.44,1.11-11.53,1.73,1.06-2.8,3.42-3.1,5.06-4.2,1.01-.68,1.48-1.3.75-2.37-.48-.71-1.08-1.14-2.08-.95-2.54.48-6.07,5.3-5.97,8.4.03.83-.47,1.1-1.01,1.46-1.8,1.19-3.45,2.67-5.39,3.54-3.04,1.36-3.83,3.2-2.01,5.98.65.98,1.69,2.01.25,2.85-1.04.6-1.85-.42-2.19-1.42-1.45-4.24-3.84-3.39-6.84-1.6-2.81,1.67-6.43,1.64-8.99,4.28-1.12-10.64-1.26-10.85-11.45-8.37-2.7.65-7.25-.66-6.67,5.1.3,2.94,1.33,3.66,3.98,3.57,4.27-.15,8.54-.04,13.53-.04-4.68,2.29-9.13,1.81-13.46,1.92-1.76.05-3.54-.14-3.42,2.36.15,2.93,2.15,1.86,3.62,1.45,3.83-1.06,7.87-1.21,11.52-3.09,2.07-1.06,4.82-3.42,5.69,1.57.32,1.86,3,.78,4.54,2.01-.78.26-1.36.49-1.96.63-1.85.43-2.42,1.55-1.87,3.33.57,1.84,1.63,1.68,3.38,1.52,3.93-.37,7.12-3.49,11.63-2.25,2.2.61,1.58-2.1.91-3.68-.68-1.59-2.52-4.24-1.05-4.76,2.94-1.04,1.33,3.37,3.41,4.25.46.19.3,1.59.67,2.3,2.6,5.04,1.83,7.16-3.54,9-2.98,1.02-6.04,1.82-9.03,2.82-1.03.35-2.4.2-3.1,1.93,5.86.71,11.06-2.03,16.63-2.32-7.09,2.32-14.05,5.05-21.58,5.62-.59.04-1.4.14-1.52-.81-.15-1.21.82-1.15,1.57-1.41,1.45-.49,3.89.3,2.72-3.11-1-2.9-2.13-3.64-4.97-2.75-4.26,1.33-8.64,2.3-12.92,3.59-1.08.32-3.17.26-2.63,2.19.37,1.32,1.97,1.46,3.4,1.53,2.71.13,5.55-1.13,8.53.8-2.79,1.11-5.38.85-7.93.98-4.44.23-5.42,1.96-4.89,7.76.41,4.43,3.65,2.26,5.24,1.92,5.95-1.25,11.9-.37,18.23-.9-.85,2.17-2.3,1.9-3.73,1.98-5.48.29-10.97.58-16.43,1.09-5.63.53-2.35,4.8-2.72,7.37-.43,3,1.64,2.89,3.93,2.47,4.99-.92,10.05-1.53,15.04-2.44,2.92-.54,6.76-.19,6.23-5.1-.04-.37.4-.99.78-1.18,4.21-2.16,8.46-4.25,12.92-5.91-2.29,2.8-5.57,3.89-8.53,5.51-3.03,1.66-4.07,5.85-2.27,8.76.54.87,1.01,1.35,1.83.57,5.19-4.93,12.49-5.88,18.26-9.74,1.52-1.02,2.85-1.86,1.55-3.88-1.16-1.79-1.06-4.13-4.31-4.69-7.61-1.31-14.79-.16-22.42,2.78,2.28-3.55,8.44-5.97,14.56-6.45,1.73-.14,3.79,1.01,4.88-1.95.9-2.43,1.46-3.88-1.47-4.95-.26-.1.15-2.23.36-3.4.15-.84.85-.77,1.54-.75,2.55.08.36,1.59.72,2.31.72,1.46,1.18,3.57,2.36,4.14,1.43.69,2.52-1.37,3.27-2.53,1.54-2.39,4.61-2.64,6.21-4.83l.04.04ZM75.89,38.1c8.04,6.34,16.2,12.52,24.08,19.04,14.33,11.85,28.5,23.9,42.74,35.87,2.25,1.89,4.18,4.48,7.63,1.63,6.33-5.24,7.05-6.78,4.18-11.75-4.66-8.05-10.36-15.38-15.95-22.79-.87-1.15-2.26-2.09-1.2-4.24,5.47,4.16,8.21,10.34,12.32,15.38,2.82,3.45,5.55,7.01,7.48,11.14,1.09,2.31,3.05,3.82,5.99,3.69,12.46-.54,24.94-.76,37.38-1.58,3.42-.22,7.53,1.72,10.14-.85,2.64-2.6.31-6.72.96-10.11.08-.43.43-.81.85-1.54,2.4,2.58,1.33,5.44,1.29,8.01-.05,2.73-.2,5.15,3.68,4.47,2.93-.51,7.3.99,6.44-4.76-.19-1.24-.66-2.62.41-3.98,2.01,1.35,1.59,3.42,1.56,5.3-.03,1.83.57,2.75,2.57,2.77,2.06.02,2.58-1.02,2.53-2.78-.12-4.49-.09-8.99-.42-13.46-.12-1.58-.98-3.17-1.73-4.63-.6-1.16-1.89-1.5-3.04-1.02-1.49.63-.25,1.58-.08,2.44.33,1.62.74,3.33-1.11,4.43-.13-.1-.34-.18-.37-.31-2.08-8.68-2.76-8.97-12.35-9.55-8.65-.53-17.08-2.47-25.25-5.45-10.41-3.8-20.84-7.58-31.26-11.38-.93-.34-2.01-.55-2.74-1.16-9.09-7.51-17.12-3.25-25.19,2.38,1.56,3.7,5.8,5.53,7.43,9.45-3.4.93-4.68-1.96-5.87-3.7-3.48-5.06-8.69-6.4-13.96-6.33-9.78.13-18.98-2.97-28.5-4.13-3.42-.42-6.82-1.05-10.23-1.58-.13.37-.26.74-.39,1.11l-.02-.03Zm139.2,71.92c-3.52.23-3.84-1.72-4.31-4.02-1.03-5.04-2.61-9.97-3.59-15.01-.53-2.75-1.8-3.48-4.4-3.38-13.59.5-27.18.88-40.77,1.3-2.12.07-10.45,6.47-10.94,8.45-.42,1.68.43,2.72,1.71,3.77,12.58,10.32,25.12,20.69,37.63,31.09,2.44,2.04,4.56,3.13,7.9,1.19,3.83-2.22,8.16-3.62,12.33-5.22,2.5-.96,3.72-2.3,2.91-5.16-.54-1.9-.33-4.02-.95-5.88-.95-2.87-.31-4.98,2.47-7.13h.01Zm102.07,114.32c-2.04,1.18-3.11.7-4.38.04-4.1-2.14-8.33-4.05-12.48-6.1-.74-.36-1.43-1.06-2.1-.1-.68.97-.35,2.02.57,2.58,2.4,1.47,4.82,2.92,7.35,4.15,7.9,3.85,15.97,7.36,23.53,11.9,1.02.61,2.67,2.62,3.65.33.7-1.65.98-3.98-1.85-4.82-3.63-1.08-7.16-2.45-11-5.08,4.09-1.12,6.27,1.86,9.06,2.45,1.22.25,3.16,1.56,3.47.25.33-1.38,2.7-2.07,1.18-4.28-1.65-2.41,1.25-6.47-1.56-8.26-2.19-1.4-5.45-1.06-8.19-1.7-3.48-.82-6.9-1.84-10.26-3.15,3.73-1.09,6.97.91,10.44,1.35,2.13.27,4.26.67,6.4.81,1.38.09,3.19.52,3.25-1.88.05-1.82-.84-2.57-2.62-2.9-3.05-.56-6.04-1.42-9.59-2.29,2.96-1.39,5.34-.64,7.7.07,3.37,1.02,4.56-.25,4.33-3.65-.21-3.14-.23-6.32-.06-9.47.47-8.48.54-8.68-7.62-9.39-4.5-.4-8.57-2.18-12.88-3.13-2.27-.5-3.89-.65-4.34,2.22-.63,3.97-2.37,7.57-3.88,11.26-1.95,4.77-1.06,6.25,3.79,7.4,1.61.38,3.18.92,4.79,1.31,1.55.38,3.13.65,5.41,1.11-5.04,1.68-8.91-.5-12.95-1.17-1.05-.17-2.42-1.11-3.03.45-.53,1.35.63,2.14,1.69,2.66,2.18,1.07,4.4,2.06,7.15,3.33-2.27.67-3.79.14-5.42-.56-2-.86-4.48-3.1-5.68.85-.82,2.71-2.86,5.6,2.24,7.08,4.65,1.35,8.92,4.01,13.87,6.33h.02ZM177.94,25.4c-7.14-1.02-15.27.58-23.24-2.02-3.01-.98-6.59-.31-9.9-.17-2.5.1-2.69,2.3-2.72,4.05-.04,2.37-1.72,4.94,1.88,6.82,8.36,4.37,17.29,7.25,26.02,10.66,5.4,2.11,11.02,3.63,16.41,5.76,3.36,1.32,5.31.68,6.55-2.73,1.86-5.14,3.77-10.25,4.75-15.66.5-2.77-.24-4.39-3.17-5.08-5.18-1.22-10.32-2.57-16.57-1.64h0Zm173.17,211.64c.41-2.69,2.8-1.4,3.56-2.77-7.02-.71-7.22-.72-7.65,5.8-.39,5.97-.19,11.97-.41,17.95-.08,2.36.82,3.31,3.11,3.4,8.28.31,16.57.43,24.8,1.65,2.62.38,5.49-5.04,4.4-8.63-1.6-5.29-2.63-10.64-3.3-16.1-.35-2.84-1.53-4.27-4.94-3.69-6.38,1.08-12.86,1.6-19.55,2.39h-.02Zm12.87-227.33c-7.62.65-16.24,1.07-23.31,4.41-7.25,3.42-14.88,5.57-22.14,8.77-9.53,4.2-19.44,7.55-29.28,11-3.12,1.09-2.96,1.57-1.12,4.23,6.11,8.84,12.88,3.48,19.02.95,9.48-3.91,18.58-8.77,27.83-13.23.43-.21,1.11-.47,1.18-.81,2.04-9.48,8.88-3.41,13.26-3.56,3.65-.12,7.53-.51,11.28.13,1.29.22,2.19-.7,2.66-1.86,1.06-2.62,2.08-5.25,3.08-7.89.73-1.93.31-2.95-2.47-2.17v.03Zm-146.29,107.12c1.38.63,1.21,2.23,1.98,3.22.87,1.12-.96,4.36,2.52,3.39,2.5-.7,3.89-2.33,3.47-5.19-.73-4.9-1.34-9.81-2.18-16.06,4.48,4.53,3.4,9.4,4.32,13.61.34,1.57-1.12,3.79,1.49,4.42,1.92.46,7.49-3.53,7.4-5.13-.09-1.7-.89-3.42.03-5.18.53.26.84.32,1.02.51,1.36,1.43-.45,5.64,3.54,4.58,3.77-1,1.34-3.86.9-5.77-1.52-6.56-3.09-13.16-8.19-19.3-.2,5.37,2.67,9.31,1.6,13.84-2.19-4.1-3.25-8.63-3.81-13.15-.66-5.28-3.98-4.71-7.53-4.29-4.45.53-2.13,3.47-2.03,5.64.11,2.31,2.5,4.31.7,7.78-1.76-3.16-2.09-6.03-2.75-8.78-.73-3.02-8.03-5.65-10.45-3.79-.85.66-.5,1.49-.31,2.23.48,1.93.93,3.88,1.61,5.74,2.85,7.85,6.71,15.43,4.17,24.33-.5,1.75-.32,6.11,2.29,5.55,3.23-.7-.2-3.79,0-5.86.07-.75-.61-1.56.18-2.35h.02Zm135.39-49.95c13.28-9.84,27.45-18.26,40.49-28.32,3.17-2.45,4.47-4.99,3.99-8.84-.41-3.28-.48-6.6-.72-9.9-.06-.82-.05-1.81-.95-2.12-.88-.3-1.47.46-2.05,1.06-13.96,14.41-27.02,29.62-40.22,44.71-.83.95-1.2,1.96-.55,3.42h.01Zm37.44-61.63c-5.58.89-11.16,1.77-16.73,2.68-3.65.59-4.36,3.9-5.55,6.49-3.88,8.46-2.37,12.26,6.1,16.67,1.65.85,2.82,1.08,4.37-.44,5.57-5.45,9.85-12.05,15.73-17.23,1.78-1.57.33-3.72-.26-5.56-.56-1.76-1.57-2.94-3.66-2.62h0Zm-135.46,77.87c-2.73.02-3.66,1.03-2.99,3.61,1.63,6.33,2.1,12.78,1.72,19.28-.2,3.53.9,3.9,4.02,2.48,4.52-2.05,9.28-3.58,13.96-5.26,2.47-.89,3.67-2.03,3.02-5.11-.88-4.21-1.1-8.55-2.16-12.77-.58-2.33-1.6-3.6-4.46-2.85-4.16.22-8.63.59-13.11.62Zm98.42,180.52c-2.26,1.46-5.87-1.54-6.77,1.49-1.15,3.89-1.16,8.3-.15,12.32.55,2.2,21.47,5.98,23.35,4.58.85-.63,5.24-13.42,4.97-14.5-.43-1.67-1.86-1.74-3.16-1.89-6.1-.7-12.21-1.35-18.25-2.01h0ZM220.72,57.82c5.36,1.27,11.12,2.62,16.88,4,1.26.3,2.41.13,3.06-1,2.45-4.3,4.9-8.61,7.17-13.01.67-1.3-.41-2.1-1.66-2.5-5.66-1.8-11.31-3.69-17-5.39-1.85-.56-3.75-.46-4.07,2.16-.68,5.47-4.28,10.03-4.39,15.73h.01Zm141.53,91.91c-2.69,2.11-5.36,3.15-3.49,6.56.75,1.36-.6,1.71-1.98,1.79-2.63.16-5.25.58-7.86,1.01-5.3.87-6.65,3.37-4.83,8.47.54,1.49,1.34,1.61,2.65,1.29,3.54-.87,7.91-.67,10.46-2.73,3.1-2.51,6.9-2.42,9.87-4.54,2.55-1.83,2.34-4.35,1.43-6.73-2.87-7.51-5.93-14.94-8.94-22.4-.53-1.3-1.27-1.97-2.97-1.99-4.12-.03-5.05,1.69-3.76,5.35,1.04,2.96,2.06,5.96,2.76,9.01.75,3.24.39,7.34,6.67,4.91h0Zm31.64,53.92c2.08,4.02,4.25,8.31,6.53,12.54.91,1.7,2,1.25,3.07-.04,6.38-7.66,12.2-15.79,19.34-22.8,1.17-1.15,1.31-2.22.21-3.45-1.16-1.31-1.83-3.43-4.21-2.79-1.27.34-2.57.75-3.69,1.41-6.01,3.53-12.02,7.09-17.94,10.78-1.45.9-3.29,1.76-3.31,4.34h0Zm-27.63,113.92c2.2-2.08,1.42-4.18,1.42-6.06.01-2.81-.93-5.82-.21-8.4,2.23-7.97-1.05-12.8-7.67-16.68-3.16-1.85-6.47-3.34-9.69-5.03-2.79-1.48-4.14-.58-4.13,2.85,0,3.62.55,6.68,3.13,9.56,6.51,7.24,12.05,15.25,17.15,23.76h0Zm15.12-64.48c2.52-4.94,4.6-8.5,6.19-12.27,2.46-5.83,6.2-10.83,9.71-15.99.92-1.36,2.39-2.49,2.33-4.27-.07-2.19-.49-4.02-3.57-2.72-6.52,2.76-13.06,5.47-19.23,9-.86.48-1.36.74-1.15,1.68,1.72,7.74,2.42,15.72,5.71,24.57h.01ZM187.11,20.08c-.34,2.4.82,2.86,1.96,3.03,3.43.53,7.53.99,10.09,2.01,8.73,3.49,13.48-2.93,19.7-5.7.96-.44,2.27-1.18,2-2.53-.3-1.5-1.93-1.1-2.91-1.23-7.85-1.01-15.45-3.11-23.11-4.99-.97-.23-2.17-.92-2.74.06-1.91,3.27-3.58,6.67-4.98,9.35h0Zm142.66-4.51c-6.55.79-13.08,1.62-19.63,2.37-6.74.78-13.49,1.88-20.25,2.08-4.64.13-5.56,2.49-5.56,6.17,0,1.33.33,2.65.28,3.97-.08,2.53.71,3.19,3.25,2.3,12.02-4.21,24.15-8.13,35.82-13.28,2.05-.9,4.19-1.58,6.29-2.37-.06-.41-.13-.82-.19-1.23h-.01Zm-77.95,58.32c.12-7.63.07-7.84-7.49-8.4-3.47-.26-7.88-3.08-9.97-.51-1.19,1.47.46,6.49.68,9.93.09,1.32.1,2.63.12,3.95.06,3.29,2.13,3.96,4.86,3.7,1.46-.14,2.91-.43,4.37-.59,4.89-.52,7.37-3.21,7.44-8.08h0Zm92.48,175.78c.24-4.12.42-8.24.72-12.35.16-2.18-.61-3.32-2.77-2.38-2.17.94-6.36-1.4-6.22,3.39.14,4.73-.1,9.42-.69,14.11-.14,1.14-.47,2.28-.43,3.41.1,2.52-1.45,6.04,3.52,5.79,3.69-.19,7.12-.17,6.26-5.53-.34-2.09-.06-4.29-.06-6.44h-.33s0,0,0,0Zm32.75-171.06c11.01-.92,21.98-1.83,32.94-2.76.6-.05,1.71-.27,1.71-.45.15-3.45-2.57-5.92-3.22-9.16-.32-1.57-1.85-1.17-2.88-.76-9.06,3.61-18.09,7.28-27.12,10.97-.69.29-1.62.59-1.43,2.17h0Zm0,89.79c6.68-3.65,9.51-10.76,15.01-15.29,1.4-1.16-2.14-6.77-3.79-5.95-4.33,2.15-9.49,2.23-13.06,6.53-5.02,6.04-.14,9.97,1.83,14.71h0Zm-125.06-65.07c-.34-5.32-.98-10.58-1.79-15.84-.59-3.76-2.87-3.86-5.8-3.37-3.48.59-1.93,2.7-1.98,4.82-.09,3.83,3.83,7.96-.6,11.54,3.76,3.06,1.9,7.87,3.63,11.51.76,1.6,2.37.1,3.57-.09,1.48-.23,3.03-.48,2.98-2.59-.05-1.99,0-3.99,0-5.98h0Zm150.24-7.38c-2.34-.57-2.65,1.49-3.34,2.84-3.17,6.18-5.3,12.82-8.58,18.99-2.02,3.81,3.09,3.24,4.52,5.13,1.44,1.9,2.07-.58,2.54-1.5,3.31-6.49,6.65-12.96,8.74-19.99,1.24-4.16.44-5.43-3.87-5.47h-.01Zm23.39,2.02c-3.43-5.65-6.74-11.02-9.96-16.44-1.52-2.56-4.23-3.52-6.3-2.37-1.89,1.05-.13,3.5.61,5.25.25.58.66,1.12.84,1.72,3.07,10.49,3.26,10.65,14.81,11.83h0Zm-13.5,4.01c.39-1.29,1.57-3.05-.55-3.83-2.57-.95-2.32,1.44-2.94,2.84-3,6.78-5.04,14-8.92,20.36-2.83,4.62-.94,6.83,3.66,8.49,2.96-9.38,5.89-18.61,8.75-27.86Zm-17.89-8.36c-1.65-.33-2.35,1.07-3.03,2.4-2.7,5.3-5.37,10.62-8.04,15.94-1.75,3.48,1.7,3.73,3.26,4.94,2.05,1.59,2.45-.69,2.96-1.82,2.67-5.87,5.13-11.83,7.83-17.67,1.46-3.14-.81-3.21-2.97-3.8h0Zm-34.56,138.15c3.46-.19,6.93-.39,10.39-.58,2.93-.16,4.06-1.36,3.32-4.51-.61-2.62-1.37-3.26-4.19-2.59-6.41,1.52-12.96,2.48-19.45,3.65-1.42.26-3.18.06-2.87,2.38.28,2.14,1.93,1.9,3.39,1.9,3.13,0,6.27,0,9.41,0v-.26h0Zm1.72-40.28c2.94-.23,3.42-1.02,3.02-4.31-.68-5.51-2.52-5.49-6.73-3.42-2.77,1.36-6.03,1.73-9.09,2.48-2.48.61-4.24,1.74-3.55,4.67.65,2.76,2.77,1.62,4.46,1.57.5-.02.99-.07,1.49-.11.01.1.02.19.03.29,3.46-.4,6.91-.9,10.37-1.17Zm-34.16-69.88c-.22.97-.3,1.98-.66,2.87-3.22,7.91-3.24,7.94,4.48,10.23,1.54.46,3.46.97,4.66-.33,1.32-1.44.67-3.55.37-5.27-.39-2.22-2.39-.97-3.7-1.21-1.4-.26-2.92-.12-4.46-1.48,3.49-1.14,7.28,1.11,10.02-1.75,1.57,1.79-.37,3.9,1.24,6.88,2.16-4.63.75-8.4.71-12.06-2.46,3.84-6.21,4.51-12.66,2.1v.02Zm-26.82-12.95c1.68-.03,5.54-4.96,5.16-6.69-.29-1.31-.07-2.5.26-3.78.28-1.07,2.53-2.2.54-3.21-1.59-.81-2.85-3.02-5.27-1.76-2.77,1.45-5.64,2.71-8.45,4.1-.39.19-.64.68-.85.92-.11,1.25,7.62,10.44,8.61,10.42Zm67.08-66.55c3.17-.91,4.63-3.93,6.16-6.57.22-.38-.83-1.69-1.5-2.37-1.04-1.05-2.18-2.04-3.41-2.86-1.88-1.25-4.24-4.81-4.9-4.08-2.08,2.3-3.03,5.62-4.1,7.87-.14,2.73,5.78,8.58,7.75,8.01Zm30.29,41.47c1.87,8.3,3.43,10.21,9.4,10.54,1.49.08,2.8.18,2.42-1.9-.81-4.36-2.55-8.41-4.52-12.33-.67-1.32-2.37-.84-3.85-.73-3.16-.26-4.23.95-3.45,4.42Zm-56.14-45.36c1.14.69,1.78,1.11,2.46,1.47.79.41,2.26.36,1.64,1.81-.35.83-1.45.65-2.23.49-1.61-.33-3.94-2.04-4.34.74-.42,2.92,2.68,2.25,4.42,2.6,2.91.59,5.93,1.19,8.8-.04,2.96-1.27,3.89,2.93,6.54,2.16-.73-8.27-3.71-9.93-17.29-9.24h0Zm5.99,107.37c-1.55,1.12-3.8-.36-4.68,1.52-.71,1.5-.74,3.36-.03,4.87.86,1.83,2.31.39,3.46.15,8.62-1.83,9.8-3.98,6.32-11.88-1.54-3.5-4.67-.69-7-1.4-1.66-.51-2.6.88-2.84,2.65-.22,1.6-.04,2.62,1.91,2.47,1.18-.09,2.39-.1,2.86,1.62h0Zm-8.02,118.06c-1.62.41-4.27-1.18-4.86,1.8-.61,3.08-1.14,6.4,1.16,9,1.84,2.07,4.68,2.23,7.28,2.4,1.29.08,1.39-1.16,1.42-2.19.05-2.16-.06-4.34.19-6.48.47-4.05-1-5.73-5.2-4.53h0Zm-65.2-180.44c1.23,5.23,1.99,9.12,2.07,13.13.03,1.53-.2,3.82,2.2,3.64,2.22-.17,4.95-.65,4.92-3.79-.04-4.5-1.12-8.88-2.65-13.08-.78-2.14-3.03-1.81-4.78-1.61-1.8.21-1.78,1.64-1.76,1.71h0Zm112.16,8.8c-1.92-.17-3.56-.16-4.25,2.27-1.27,4.44-2.79,8.8-4.24,13.18-.57,1.73-.74,3.46,1.21,4.25,2.12.85,2.29-1.17,2.91-2.44,2.17-4.47,4.31-8.96,6.59-13.37,1.38-2.65,1.83-4.51-2.22-3.88h0Zm-17.86,55.67c-.37,1.91.2,3.84,1.61,5.01,1.37,1.13,2.39-.55,3.26-1.4,2.91-2.86,7.41-3.69,9.51-7.62.6-1.12,1.18-2.02.22-3.11-.72-.82-1.1-2.09-2.49-2.13-1.63-.02-11.79,7.59-12.11,9.25Zm10.98-66.56c-1.26.1-2.87-.32-3.03,1.62-.12,1.48-.08,3.1,1.78,3.65,3.63,1.08,7.29,2.1,10.93,3.15.72.2,1.21.08,1.54-.7,1.26-3-2.38-8.71-5.4-8.42-1.84,1.04-3.87.55-5.82.7Zm-84.87,9.09c-.27-8.47-1.18-9.53-5.87-9.27-2.59.15-2.19,1.58-1.71,2.97.9,2.6.62,5.26.87,7.9.14,1.55-1.04,4.43,1.93,3.93,2.01-.34,5.36-.62,4.88-4.38-.11-.82-.15-1.64-.11-1.15h.01Zm48.96,118.4c.6-3.2-.31-5.15-4.27-5.15s-3.37,2.72-3.49,5.11c-.03.65.35,1.4.14,1.95-.99,2.53-1.3,4.93,2.16,5.35,3.5.43,5.74-1.12,5.47-5.08-.04-.66,0-1.32,0-2.18h-.01Zm26.66-46.88c-1.22.51-2.14.98-2.34,2.4-.32,2.3-2.59,2.89-4,2.46-1.96-.6-3.33-.54-2.66,1.49.68,2.08-.12,6.11,3.7,5.61,2.99-.39,5.8-2.18,8.7-3.32,1.26-.49,1.48-1.4.67-2.28-1.72-1.89-1.32-5.19-4.05-6.36h-.02Zm2.28-38.31c.29,1.98,1.38,3.81,3.36,4.53,1.51.55,7.4-6.33,7.58-8.78.2-2.63-2.16-2.42-3.51-3.13-1.77-.05-7.68,5.68-7.43,7.38Zm-8.23-40.7c-.79-2.27-2.75-.3-3.88-2.02,1.21-3.03,5.3-.42,6.37-3.28-8.15,1.16-16.66-2.17-25.41,1.12,7.79,2.34,16.13-1.25,22.93,4.18h-.01Zm-28.68,139.2c.33,2.89-.7,6.25,2.34,5.73,1.99-.34,6.75.63,6.06-3.6-.35-2.15,1.96-6.41-2.43-6.71-3.16-.21-7.08.37-5.97,4.59h0Zm-4.69-190.94c-11.52,4.04-22.05,10.53-33.61,14.55,12.41-1.92,22.97-8.32,33.61-14.55Zm36.89,163.46c-.09,1.85.48,2.72,2.33,2.27,4.68-1.14,9.16-2.79,13.54-4.76.79-.35,1.45-.87.94-1.89-.43-.87-1.19-1.11-2.07-.91-4.87,1.11-9.14,4.29-14.38,4.21-.13,0-.27.81-.35,1.07h-.01Zm-11.93-102.67c-.52,1.59,2.77,4.07,3.8,3.51,2.76-1.49,3.58-4.91,4.42-7.8.56-1.94-2.01-1.61-3.11-2.65-2.94,1.54-4.27,4.4-5.11,6.94Zm-30.17-23.54c3.03,2.9,6.39,4,9.66,2.5,3.17-1.46.86-4.94,2.29-8.43-4.77,2.37-8.22,4.08-11.95,5.93Zm24.5,65.57c-.8-2.31.17-6.26-2.72-6.45-1.68-.11-5.52,1.74-5.27,5.42.25,3.73,3.37,2.84,4.54,3.17,2.75.28,4.26.19,3.45-2.14Zm-6.42-6.46c.87-.79,2.59-1.6,2.7-2.58.32-2.84.08-5.75-.16-8.61-.05-.59-1-1.39-1.96-.76-.78.52-2.73.67-2.3,1.38,1.86,3.05-1.25,5.82-.13,8.72.34.87.15,2.08,1.85,1.84h0Zm-102.75-29.35c1.01-3.57,0-6.88-.77-10.2-.41-1.75-1.35-3.04-3.46-2.81-.95.1-2.24-.24-2.66.79-.65,1.59.41,2.93,1.43,3.98,2.32,2.39,3.74,5.31,5.47,8.24h0Zm71.46-1.11c1.81-.07,4.76-2.3,4.79-4.38.05-3.37-3.79-2.21-5.83-3.11-1.18-.52-3.21.28-4.12,2.4,2.42,1.09,2.42,5.2,5.16,5.09Zm29.04,68.08c-1.77-.99,2.26-4.98-2.1-4.44-4.58.57-1.55,4.87-2.7,7.28-.82,1.74.88,2.35,2.7,2.18,3.93-.36,1.66-3.11,2.1-5.02h0Zm26.89-49.16c-.79,1.37-.53,3.33.93,2.84,2.84-.96,4.44-3.91,5.75-6.46.64-1.24-2.2-3.05-2.82-2.76-2.5,1.16-5.07,2.76-3.86,6.37h0Zm-12.88-10.53c-1.18-1.03-1.73-3.21-3.82-1.87-1.81,1.16-1.11,2.85-.4,4.42.88,1.93,1.71,3.87,2.58,5.87,4.28-2.37,5.72-4.85,1.64-8.42Zm-18.78,13.06c.53-1.95-1.03-2.42-2.8-2.38-3.3.08-7.07-.63-6.29,5.13,2.79-1.97,7.49,3.13,9.09-2.75Zm11.24-4.35c.18.79,1.03,1.38,1.96,1,.55-.22,1.44-.99,1.39-1.09-2.02-3.85-1.38-8.98-5.93-12.79-.12,5.19,1.7,8.95,2.58,12.88Zm-12.42,118.06c-.12,1.27.89,2.37,2.24,1.67,2.27-1.18,6.11.65,6.88-3.1.45-2.21-1.57-1.92-3.54-1.64-1.62.85-5.21-.96-5.58,3.07Zm.55-40.93c-.1,1.68.24,3.15,2.34,2.81,2.01-.33,4.36-.31,4.3-3.55-.04-2.28-.99-2.68-2.98-2.68-2.48-.01-3.75.89-3.66,3.43h0Zm-36.04-108.16c0,2.26-.06,3.56.02,4.85.07,1.06-.28,2.73,1.14,2.79,1.22.05,2.46-1.01,2.44-2.59-.02-1.63-.06-3.28-.39-4.87-.24-1.16-1.18-2.12-2.48-1.96-1.84.23-.73,1.79-.73,1.79h0Zm42.9,203.26c1.74-6.67,1.43-7.1-5.61-7.83.76,3.74,3.58,5.28,5.61,7.83Zm-6.54-103.6c-.21,2.22,1.1,2.92,3,2.99,1.55.05,3.14.05,3-2.19-.15-2.26-1.62-2.98-3.66-3.21-1.96-.23-2.13,1.05-2.34,2.4h0Zm3.45-4.36c2.49-.01,2-2.32,2.32-3.74.42-1.86-.6-2.72-2.59-2.51-2.04.22-2.98,1.24-2.9,3.41-.08,2.05,1.34,2.85,3.17,2.84Zm12.96-48.86c1.48-.38,4.06,0,3.81-2.8-.16-1.84-1.23-3.03-3.27-2.74-1.51.22-3.04.54-2.61,2.75.75.87-.28,3.39,2.07,2.79Zm3.83,64.34c-3.17.28-6.33.54-9.49.84-1.04.1-2.05.39-1.85,1.73.2,1.4,1.22,1.12,2.25,1.02,3.28-.31,6.12-1.88,9.08-3.58h0Zm-16.04,1.95c-2.21.55-4.45.18-4.67,2.69-.13,1.53,1.01,2.01,2.29,1.55,1.74-.63,4.41-.28,4.73-2.71.24-1.78-1.63-1.51-2.34-1.53h-.01Zm25.74,92.81c.78.7,1.79,1.81,2.75.18.77-1.3.65-2.55-.74-3.38-2.03-1.21-4.23-1.65-7.06-1.27,1.35,2.42,3.5,3.1,5.05,4.47Zm-14.43-234.66c-1.41-.03-1.78.93-1.78,1.91.01,1.87,1.34,2.94,2.87,3.55,1.22.49,1.74-.56,1.89-1.58.33-2.32-1.81-2.76-2.97-3.88h-.01Zm-21.2,28.5c-2.28-.18-4.31.37-6.19,1.28-.83.41-2.08,1.17-1,2.5.86,1.06,1.83,1.16,2.89.15,1.37-1.31,2.8-2.56,4.3-3.92h0Zm-88.04-21.63c-.54.99-.57,1.97.67,2.37,1.13.36,1.94-.31,2.22-1.37.69-2.67,1.28-5.36,1.91-8.04-.28-.07-.56-.15-.84-.22-1.32,2.42-2.65,4.84-3.96,7.26Zm85.86,32.06c1.33-.34,3.25-.11,3-2.28-.19-1.65-1.43-2.44-3.11-2.42-2.04.02-1.64,1.54-1.68,2.78-.03,1.23.05,2.37,1.8,1.92h-.01Zm8.75,20.1c-.02-2.03-2.57-1.52-4.11-1.66-1.44-.13-3.78-.23-3.66,1.5.18,2.54,2.84.33,3.86,1.4,1.53-.57,3.94.85,3.91-1.24Zm22.06-72.93c.83,2.9,1.18,4.46,1.73,5.95.33.89.86,1.82,1.98,1.99.75.11,1.19-.39,1.49-1.01.57-1.17.47-2.23-.55-3.1-1.12-.95-2.26-1.87-4.65-3.84h0Zm-22.22,110.24c.17,1.25-.23,3.01,1.77,2.9,2.05-.11,1.42-1.91,1.38-3.09-.03-1.15.86-3.07-1.21-3.16-2.27-.1-1.57,2.04-1.93,3.34h0Zm-52.09-58.5c1.44-4.29,1.18-5.93-2.33-9.96.76,3.23,1.51,6.46,2.33,9.96Zm66.65,24.91c-1.18.2-2.36.43-2.43,1.9-.05,1.16.09,2.45,1.62,2.47,1.5.02,2.36-1.05,2.5-2.46.12-1.1-.55-1.8-1.68-1.91h-.01Zm-16.42-17.48c1.33.12,2.28-.31,2.29-1.88.01-1.14-.46-2.01-1.59-2.16-1.37-.18-2.14.63-2.33,1.85-.06,1.3.42,2.08,1.63,2.19Zm-46.45,127.2c.06.12.11.23.17.35l.53-.33c-.11-.11-.22-.32-.34-.32-.11,0-.23.2-.35.31h0Z"/>
  <path class="cls-1" d="m335.92,788.58c-1.54,4.34-.83,9.24-3.54,12.66-3.75,4.73-3.38,9.22-1.07,14.15.86,1.84,2.05,3.34,3.55,4.71,1.3,1.19,1.25,2.66-.18,3.88-1.13.97-2.52.71-3.07-.31-3-5.53-7.8-10.46-4.76-17.82,2.32-5.62,3.85-11.56,5.74-17.36.26-.79.6-1.78-.15-2.27-.58-.37-1.65-.4-2.3-.12-1.5.64-3.36,1.19-3.66,3.08-.88,5.56-3.84,10.11-6.58,14.83-.74,1.3-.11,3.85-2.76,2.58-2.04-.98-1.21-3.06-.41-4.37,1.47-2.42,3.3-4.63,3.97-7.44,1.43-6.04,4.62-10.57,10.55-12.95,1.34-.54,3.13-1.32,2.6-3.11-.45-1.52-2.31-1.71-3.77-1.79-5.31-.29-8.75-5.56-6.24-10.28,1.39-2.6,1.36-4.93.93-7.63-.87-5.45,6.2-14.87,11.35-15.4-.22.39-.43.81-.69,1.2-3.43,5.14-12.15,8.64-5.28,17.01.1.11-.2.6-.37.87-2.84,4.51.23,6.26,3.68,8.39.27-5.49,3.04-9.29,6.5-12.31,2.5-2.19,3.25-4.64,2.97-7.46-1.54-15.38-1.95-30.8-2.08-46.24-.03-4.24.75-8.7-1.21-12.81-.44-.91-1.12-1.98,0-2.63,1.24-.72,2.33.24,2.88,1.25.62,1.14,1.15,2.48,1.18,3.74.37,15.37.68,30.73.89,46.1.05,3.57.55,6.91,3.14,9.54,4.19,4.25,7.81,8.98,11.59,13.59,2.81,3.43,2.22,6.59.84,10.17-1.23,3.2-2.78,5.68-6.81,4.95-.96-.17-2.19-.26-2.31,1.11-.1,1.24,1.22,1.39,2.03,1.86,3.28,1.89,7.78,3.02,8.68,6.97,1.46,6.4,4.11,12.26,6.55,18.23,1.15,2.79-.24,4.44-1.7,6.24-.77.95-1.82,1.59-3.04.77-1.42-.96-.63-1.92.1-2.92.9-1.24,2.68-2.41.79-4.17-3.81-3.56-4.4-8.43-5.41-13.14-.76-3.54-1.97-6.69-6.52-7.33.77,6.4,3.44,12.13,5.56,17.96,2.02,5.55-.38,9.92-2.49,14.51-.46,1-1.46,1.37-2.53.95-1.7-.67-.96-1.81-.44-2.85,2.31-4.67,2.84-9.46,1.14-14.44-.97-2.82-1.94-5.64-2.89-8.46-1.53-4.56-6.59-7.57-9.58-4.54-3.49,3.54-3.39-.72-5.36-1.16h0Zm18.63-14.5c-.6-4.21-1.2-8.43-1.8-12.64-.5-3.5-3.86-4.78-5.67-7.27-.42-.59-1.18-.71-1.63-.03-.34.52-.75,1.46-.52,1.81,3.76,5.76,7.65,11.43,7.93,18.92.56-.26,1.13-.52,1.7-.78h-.01Zm-26.98-4.05c-.2,3.58,1.75,4.74,5.34,4.74-1.41-2.46-4.17-2.71-5.34-4.74Z"/>
</svg>